# xmcd CD database file
#
# Track frame offsets:
#	150
#	18183
#	43320
#	58705
#	79453
#	97800
#	124425
#	150855
#	169798
#
# Disc length: 2566 seconds
#
# Revision: 0
# Processed by: cddbd v1.5.2PL0 Copyright (c) Steve Scherf et al.
# Submitted via: CDex 1.51
#
DISCID=6b0a0409
DTITLE=Jasper van't Hof - TitelCrystal Bells
DYEAR=1994
DGENRE=Jazz
TTITLE0=Carola
TTITLE1=Voyage Home
TTITLE2=Tropic of Cancer
TTITLE3=Transition
TTITLE4=Summerhouse
TTITLE5=Crystal Bells
TTITLE6=Dinner is served
TTITLE7=Punch and Judy
TTITLE8=Meditation
EXTD=YEAR: 1994
EXTT0=
EXTT1=
EXTT2=
EXTT3=
EXTT4=
EXTT5=
EXTT6=
EXTT7=
EXTT8=
PLAYORDER=
